<?xml version="1.0" encoding="UTF-8" standalone="no"?>
<svg
   width="970.00098"
   height="98.276604"
   viewBox="0 0 970.00098 98.276604"
   fill="none"
   version="1.1"
   id="svg46"
   sodipodi:docname="315949ff623122869508aabcd20d62f0.svg"
   xmlns:inkscape="http://www.inkscape.org/namespaces/inkscape"
   xmlns:sodipodi="http://sodipodi.sourceforge.net/DTD/sodipodi-0.dtd"
   xmlns="http://www.w3.org/2000/svg"
   xmlns:svg="http://www.w3.org/2000/svg">
  <sodipodi:namedview
     id="namedview48"
     pagecolor="#ffffff"
     bordercolor="#666666"
     borderopacity="1.0"
     inkscape:pageshadow="2"
     inkscape:pageopacity="0.0"
     inkscape:pagecheckerboard="0" />
  <g
     filter="url(#filter0_d)"
     id="g4">
    <path
       d="m 461.094,69.4144 c -0.874,-1.7483 -1.838,-3.5117 -2.893,-5.2901 -1.025,-1.8086 -2.216,-3.6474 -3.572,-5.5163 -0.422,0.5426 -0.965,1.2962 -1.628,2.2608 -0.633,0.9646 -1.281,1.9895 -1.944,3.0746 -0.633,1.0852 -1.236,2.1251 -1.809,3.1198 -0.573,0.9948 -0.995,1.7785 -1.266,2.3512 h -8.048 c 1.326,-2.4416 2.863,-5.0038 4.612,-7.6865 1.778,-2.6828 3.753,-5.5313 5.923,-8.5457 L 440.386,38.0804 h 8.546 l 6.104,9.7665 5.968,-9.7665 h 8.048 l -9.947,15.1923 c 2.532,3.2856 4.657,6.3301 6.375,9.1334 1.718,2.7732 3.075,5.1093 4.07,7.0083 z"
       fill="#0066ff"
       id="path2" />
  </g>
  <path
     d="m 111.191,69.4144 v -31.334 h 21.161 v 5.9232 h -14.107 v 6.1492 h 12.525 v 5.7876 h -12.525 v 7.5509 h 15.147 v 5.9231 z m 50.661,-31.334 v 6.0136 h -9.449 v 25.3204 h -7.054 V 44.094 h -9.45 v -6.0136 z m 23.433,0 h 7.054 v 31.334 h -7.054 V 56.1212 h -11.846 v 13.2932 h -7.053 v -31.334 h 7.053 v 11.982 h 11.846 z m 14.305,31.334 v -31.334 h 21.161 v 5.9232 h -14.107 v 6.1492 h 12.525 v 5.7876 h -12.525 v 7.5509 h 15.147 v 5.9231 z m 36.599,-31.6957 c 4.703,0 8.305,0.844 10.807,2.532 2.502,1.6579 3.753,4.2502 3.753,7.777 0,2.2005 -0.513,3.994 -1.538,5.3806 -0.994,1.3565 -2.441,2.4265 -4.34,3.2103 0.633,0.7837 1.296,1.688 1.989,2.7129 0.694,0.9947 1.372,2.0497 2.035,3.165 0.693,1.0852 1.356,2.2306 1.989,3.4364 0.633,1.1756 1.221,2.3361 1.764,3.4815 h -7.913 c -0.573,-1.0248 -1.16,-2.0648 -1.763,-3.1198 -0.573,-1.055 -1.176,-2.0799 -1.809,-3.0746 -0.603,-0.9948 -1.206,-1.9292 -1.808,-2.8034 -0.603,-0.9043 -1.206,-1.7181 -1.809,-2.4416 h -3.482 v 11.4394 h -7.053 V 38.5326 c 1.537,-0.3015 3.12,-0.5125 4.747,-0.633 1.658,-0.1206 3.135,-0.1809 4.431,-0.1809 z m 0.407,6.0136 c -0.512,0 -0.979,0.0151 -1.401,0.0452 -0.392,0.0302 -0.769,0.0603 -1.131,0.0904 v 8.5005 h 1.99 c 2.652,0 4.551,-0.3316 5.697,-0.9948 1.145,-0.6631 1.718,-1.7935 1.718,-3.3911 0,-1.5373 -0.588,-2.6225 -1.763,-3.2555 -1.146,-0.6631 -2.849,-0.9947 -5.11,-0.9947 z m 20.573,25.6821 v -31.334 h 21.161 v 5.9232 h -14.108 v 6.1492 h 12.525 v 5.7876 h -12.525 v 7.5509 h 15.147 v 5.9231 z m 39.674,0.633 c -2.201,0 -4.1,-0.3014 -5.697,-0.9043 -1.598,-0.633 -2.924,-1.4921 -3.979,-2.5772 -1.025,-1.1153 -1.794,-2.4266 -2.306,-3.9337 -0.483,-1.5373 -0.724,-3.2254 -0.724,-5.0641 V 38.0804 h 7.054 v 18.8999 c 0,1.266 0.135,2.3512 0.407,3.2555 0.301,0.8741 0.693,1.5976 1.175,2.1703 0.513,0.5426 1.116,0.9344 1.809,1.1756 0.723,0.2411 1.507,0.3617 2.351,0.3617 1.718,0 3.105,-0.5275 4.16,-1.5825 1.085,-1.055 1.628,-2.8486 1.628,-5.3806 V 38.0804 h 7.053 v 19.4877 c 0,1.8387 -0.256,3.5268 -0.769,5.0641 -0.512,1.5373 -1.296,2.8636 -2.351,3.9789 -1.055,1.0852 -2.396,1.9292 -4.024,2.532 -1.628,0.6029 -3.557,0.9043 -5.787,0.9043 z m 28.034,-31.967 c 0.543,0.9947 1.161,2.2306 1.854,3.7076 0.724,1.4469 1.462,3.0295 2.216,4.7476 0.783,1.6881 1.552,3.4213 2.306,5.1998 0.753,1.7784 1.462,3.4514 2.125,5.0188 0.663,-1.5674 1.371,-3.2404 2.125,-5.0188 0.753,-1.7785 1.507,-3.5117 2.261,-5.1998 0.783,-1.7181 1.522,-3.3007 2.215,-4.7476 0.724,-1.477 1.357,-2.7129 1.899,-3.7076 h 6.421 c 0.301,2.0799 0.572,4.416 0.814,7.0083 0.271,2.5622 0.497,5.245 0.678,8.0483 0.211,2.7732 0.392,5.5615 0.542,8.3648 0.181,2.8033 0.332,5.4409 0.453,7.9126 h -6.873 c -0.091,-3.0444 -0.211,-6.3602 -0.362,-9.9473 -0.151,-3.587 -0.377,-7.2042 -0.678,-10.8516 -0.543,1.266 -1.146,2.6677 -1.809,4.205 -0.663,1.5373 -1.326,3.0746 -1.989,4.6119 -0.633,1.5374 -1.251,3.0144 -1.854,4.4311 -0.603,1.3866 -1.115,2.5773 -1.537,3.572 h -4.929 c -0.422,-0.9947 -0.934,-2.1854 -1.537,-3.572 -0.603,-1.4167 -1.236,-2.8937 -1.899,-4.4311 -0.633,-1.5373 -1.281,-3.0746 -1.944,-4.6119 -0.663,-1.5373 -1.266,-2.939 -1.809,-4.205 -0.301,3.6474 -0.527,7.2646 -0.678,10.8516 -0.151,3.5871 -0.271,6.9029 -0.362,9.9473 h -6.873 c 0.121,-2.4717 0.257,-5.1093 0.407,-7.9126 0.181,-2.8033 0.362,-5.5916 0.543,-8.3648 0.211,-2.8033 0.437,-5.4861 0.678,-8.0483 0.272,-2.5923 0.558,-4.9284 0.859,-7.0083 z"
     fill="#ffffff"
     id="path6" />
  <path
     d="M 29.5461,67.861 V 37.6116 L 0,50.5541 Z"
     fill="#ffffff"
     id="path8" />
  <path
     d="M 29.5422,35.5323 V 0.0142822 L 0.948242,48.057 Z"
     fill="#ffffff"
     id="path10" />
  <path
     d="M 31.4492,0 V 35.5327 L 60.4449,48.2345 Z"
     fill="#ffffff"
     id="path12" />
  <path
     d="M 31.4492,37.6116 V 67.8618 L 61.0161,50.5627 Z"
     fill="#ffffff"
     id="path14" />
  <path
     d="M 29.5466,98.2766 V 73.9464 L 0.199219,56.7639 Z"
     fill="#ffffff"
     id="path16" />
  <path
     d="M 31.4492,98.2766 60.7966,56.7639 31.4492,73.9464 Z"
     fill="#ffffff"
     id="path18" />
  <g
     clip-path="url(#clip0)"
     id="g22">
    <path
       d="m 748.953,31.1958 c -10.061,0 -17.922,7.8527 -17.922,18.3652 0,10.5126 7.663,18.2981 17.922,18.2981 10.259,0 18.055,-7.92 18.055,-18.3653 0,-10.3781 -7.663,-18.298 -18.055,-18.298 z m 0.068,29.0871 c -5.73,0 -9.928,-4.5751 -9.928,-10.7193 0,-6.2139 4.131,-10.7865 9.86,-10.7865 5.797,0 9.993,4.6424 9.993,10.7865 0,6.1442 -4.196,10.7193 -9.925,10.7193 z m 20.184,-21.0974 h 4.997 v 27.9938 h 7.995 V 31.8782 h -12.992 z m -58.293,-0.411 c 4.199,0 7.53,2.6624 8.794,6.6224 h 8.462 c -1.534,-8.4653 -8.329,-14.2011 -17.188,-14.2011 -10.06,0 -17.921,7.8527 -17.921,18.3678 0,10.5151 7.662,18.2981 17.921,18.2981 8.661,0 15.589,-5.7358 17.122,-14.2709 h -8.396 c -1.199,3.96 -4.53,6.6921 -8.728,6.6921 -5.797,0 -9.86,-4.5751 -9.86,-10.7193 0.003,-6.2139 4,-10.7891 9.794,-10.7891 z m 210.188,7.3746 -5.862,-0.8866 c -2.798,-0.4084 -4.797,-1.3648 -4.797,-3.6188 0,-2.4582 2.6,-3.686 6.129,-3.686 3.864,0 6.33,1.706 6.863,4.5054 h 7.728 c -0.868,-7.1005 -6.197,-11.2647 -14.39,-11.2647 -8.462,0 -14.058,4.4382 -14.058,10.7193 0,6.0071 3.666,9.4915 11.059,10.5823 l 5.862,0.8866 c 2.866,0.4084 4.465,1.5716 4.465,3.7558 0,2.7993 -2.798,3.9599 -6.662,3.9599 -4.731,0 -7.396,-1.98 -7.795,-4.9835 h -7.861 c 0.734,6.8963 5.995,11.7429 15.588,11.7429 8.729,0 14.523,-4.097 14.523,-11.1303 0,-6.2812 -4.195,-9.5587 -10.792,-10.5823 z M 778.2,17.3359 c -2.932,0 -5.131,2.1842 -5.131,5.1878 0,3.0036 2.197,5.1878 5.131,5.1878 2.931,0 5.13,-2.1842 5.13,-5.1878 0,-3.0036 -2.199,-5.1878 -5.13,-5.1878 z m 117.319,26.629 c 0,-7.6459 -4.53,-12.7665 -14.124,-12.7665 -9.06,0 -14.123,4.7121 -15.123,11.9497 h 7.929 c 0.399,-2.7994 2.531,-5.1206 7.061,-5.1206 4.065,0 6.064,1.843 6.064,4.097 0,2.9364 -3.666,3.686 -8.196,4.1641 -6.128,0.6824 -13.723,2.8666 -13.723,11.0605 0,6.351 4.598,10.4453 11.926,10.4453 5.729,0 9.327,-2.4581 11.127,-6.3509 0.266,3.4818 2.798,5.7358 6.33,5.7358 h 4.663 v -7.3048 h -3.932 V 43.9649 Z m -7.861,8.8763 c 0,4.7121 -3.997,8.1939 -8.862,8.1939 -2.999,0 -5.53,-1.2976 -5.53,-4.0272 0,-3.4817 4.064,-4.4381 7.795,-4.8465 3.598,-0.3412 5.596,-1.1606 6.597,-2.7322 z M 845.22,31.1958 c -4.464,0 -8.195,1.9128 -10.86,5.1206 V 16.9948 h -7.994 v 50.1845 h 7.861 v -4.6424 c 2.665,3.3448 6.463,5.3248 10.993,5.3248 9.593,0 16.856,-7.783 16.856,-18.2981 0,-10.5151 -7.396,-18.3678 -16.856,-18.3678 z m -1.199,29.0871 c -5.729,0 -9.927,-4.5751 -9.927,-10.7193 0,-6.1441 4.263,-10.7865 9.993,-10.7865 5.797,0 9.859,4.5752 9.859,10.7865 0,6.1442 -4.196,10.7193 -9.925,10.7193 z M 807.245,31.1958 c -5.196,0 -8.595,2.1842 -10.593,5.2576 v -4.5752 h -7.929 v 35.2985 h 7.994 V 47.9921 c 0,-5.3946 3.331,-9.2176 8.261,-9.2176 4.598,0 7.461,3.3448 7.461,8.194 v 20.2108 h 7.994 V 46.3559 C 820.436,37.477 815.974,31.1958 807.245,31.1958 Z M 970.001,48.403 c 0,-10.1041 -7.195,-17.2046 -16.856,-17.2046 -10.259,0 -17.789,7.9199 -17.789,18.3652 0,10.9933 8.063,18.2981 17.922,18.2981 8.329,0 14.857,-5.0534 16.521,-12.2211 h -8.328 c -1.199,3.1405 -4.13,4.9163 -8.062,4.9163 -5.131,0 -8.995,-3.2775 -9.86,-9.0133 h 26.449 V 48.403 Z m -25.984,-2.7321 c 1.267,-4.9164 4.864,-7.3048 8.995,-7.3048 4.53,0 7.994,2.6624 8.793,7.3048 z"
       fill="#ffffff"
       id="path20" />
  </g>
  <path
     d="M 625.593,37.9825 C 622.269,27.4021 613.51,20.2886 602.472,20.2886 c -15.236,0 -25.746,12.2241 -25.752,28.8269 0,16.4163 10.681,28.6404 25.924,28.6404 11.038,0 19.796,-7.2999 22.949,-17.8804 h 22.077 c -4.032,22.8046 -22.248,38.1297 -45.02,38.1297 -26.975,0 -47.122,-20.7949 -47.122,-48.8897 0,-28.0949 20.67,-49.0761934 47.122,-49.0761934 23.294,0 41.16,15.3250934 45.192,37.9431934 z"
     fill="#ffffff"
     id="path24" />
  <defs
     id="defs44">
    <filter
       id="filter0_d"
       x="411.67401"
       y="9.8210602"
       width="86.134598"
       height="87.852798"
       filterUnits="userSpaceOnUse"
       color-interpolation-filters="sRGB">
      <feFlood
         flood-opacity="0"
         result="BackgroundImageFix"
         id="feFlood26" />
      <feColorMatrix
         in="SourceAlpha"
         type="matrix"
         values="0 0 0 0 0 0 0 0 0 0 0 0 0 0 0 0 0 0 127 0"
         id="feColorMatrix28" />
      <feOffset
         id="feOffset30" />
      <feGaussianBlur
         stdDeviation="14.1297"
         id="feGaussianBlur32" />
      <feColorMatrix
         type="matrix"
         values="0 0 0 0 0 0 0 0 0 0.4 0 0 0 0 1 0 0 0 1 0"
         id="feColorMatrix34" />
      <feBlend
         mode="normal"
         in2="BackgroundImageFix"
         result="effect1_dropShadow"
         id="feBlend36" />
      <feBlend
         mode="normal"
         in="SourceGraphic"
         in2="effect1_dropShadow"
         result="shape"
         id="feBlend38" />
    </filter>
    <clipPath
       id="clip0">
      <rect
         width="276.94199"
         height="50.866901"
         fill="#ffffff"
         transform="translate(693.059,16.9948)"
         id="rect41"
         x="0"
         y="0" />
    </clipPath>
  </defs>
</svg>
