<?xml version="1.0" encoding="UTF-8" standalone="no"?>
<svg
   width="330.9989"
   height="33.65675"
   viewBox="0 0 330.9989 33.65675"
   fill="none"
   version="1.1"
   id="svg46"
   sodipodi:docname="852e7d142a14cedbe9a4fc5a8040514b.svg"
   xmlns:inkscape="http://www.inkscape.org/namespaces/inkscape"
   xmlns:sodipodi="http://sodipodi.sourceforge.net/DTD/sodipodi-0.dtd"
   xmlns="http://www.w3.org/2000/svg"
   xmlns:svg="http://www.w3.org/2000/svg">
  <sodipodi:namedview
     id="namedview48"
     pagecolor="#ffffff"
     bordercolor="#666666"
     borderopacity="1.0"
     inkscape:pageshadow="2"
     inkscape:pageopacity="0.0"
     inkscape:pagecheckerboard="0" />
  <g
     filter="url(#filter0_d)"
     id="g4">
    <path
       d="m 157.343,24.0136 c -0.299,-0.5966 -0.628,-1.1983 -0.988,-1.8052 -0.349,-0.6171 -0.756,-1.2446 -1.219,-1.8823 -0.144,0.1851 -0.329,0.4423 -0.555,0.7714 -0.216,0.3292 -0.437,0.6789 -0.664,1.0492 -0.216,0.3703 -0.421,0.7252 -0.617,1.0646 -0.195,0.3395 -0.339,0.6069 -0.432,0.8023 h -2.746 c 0.453,-0.8331 0.977,-1.7075 1.574,-2.6229 0.607,-0.9155 1.28,-1.8875 2.021,-2.9161 l -3.441,-5.1533 h 2.916 l 2.083,3.3327 2.037,-3.3327 h 2.746 l -3.394,5.1842 c 0.864,1.1211 1.589,2.16 2.175,3.1166 0.587,0.9463 1.05,1.7435 1.389,2.3915 z"
       fill="#0066ff"
       id="path2" />
  </g>
  <path
     d="M 37.9435,24.0136 V 13.3213 h 7.2207 v 2.0212 h -4.8138 v 2.0984 h 4.2738 v 1.9749 h -4.2738 v 2.5766 h 5.1687 v 2.0212 z M 55.2308,13.3213 v 2.0521 h -3.2246 v 8.6402 h -2.407 v -8.6402 h -3.2246 v -2.0521 z m 7.9963,0 h 2.4069 v 10.6923 h -2.4069 v -4.5361 h -4.0424 v 4.5361 h -2.407 V 13.3213 h 2.407 V 17.41 h 4.0424 z m 4.8813,10.6923 V 13.3213 h 7.2208 v 2.0212 h -4.8138 v 2.0984 h 4.2738 v 1.9749 h -4.2738 v 2.5766 h 5.1687 v 2.0212 z m 12.489,-10.8157 c 1.6046,0 2.8338,0.288 3.6875,0.864 0.8538,0.5657 1.2806,1.4503 1.2806,2.6538 0,0.7509 -0.1748,1.3629 -0.5245,1.836 -0.3395,0.4629 -0.8332,0.8281 -1.4812,1.0955 0.216,0.2674 0.4423,0.576 0.6788,0.9257 0.2366,0.3395 0.4681,0.6995 0.6944,1.0801 0.2365,0.3703 0.4628,0.7611 0.6788,1.1726 0.216,0.4011 0.4166,0.7972 0.6018,1.188 H 83.5135 C 83.318,23.6639 83.1175,23.309 82.9118,22.949 82.7163,22.589 82.5106,22.2393 82.2946,21.8998 82.0889,21.5604 81.8831,21.2415 81.6774,20.9432 81.4717,20.6347 81.266,20.3569 81.0603,20.1101 h -1.1881 v 3.9035 h -2.4069 v -10.538 c 0.5246,-0.1029 1.0646,-0.1749 1.62,-0.216 0.5658,-0.0412 1.0698,-0.0617 1.5121,-0.0617 z m 0.1389,2.052 c -0.1749,0 -0.3343,0.0052 -0.4783,0.0155 -0.1338,0.0102 -0.2623,0.0205 -0.3858,0.0308 v 2.9007 h 0.6789 c 0.9052,0 1.5532,-0.1132 1.9441,-0.3395 0.3908,-0.2263 0.5863,-0.612 0.5863,-1.1571 0,-0.5246 -0.2006,-0.8949 -0.6018,-1.1109 -0.3908,-0.2263 -0.972,-0.3395 -1.7434,-0.3395 z m 7.02,8.7637 V 13.3213 h 7.2208 v 2.0212 h -4.8138 v 2.0984 h 4.2738 v 1.9749 h -4.2738 v 2.5766 h 5.1687 v 2.0212 z m 13.5377,0.216 c -0.75,0 -1.3984,-0.1028 -1.9436,-0.3086 -0.5451,-0.216 -0.9977,-0.5091 -1.3577,-0.8794 -0.3498,-0.3806 -0.612,-0.828 -0.7869,-1.3423 -0.1646,-0.5246 -0.2469,-1.1006 -0.2469,-1.7281 v -6.6499 h 2.407 v 6.4493 c 0,0.432 0.0462,0.8023 0.1388,1.1109 0.1029,0.2983 0.2366,0.5452 0.4012,0.7406 0.1751,0.1852 0.3801,0.3189 0.6171,0.4012 0.247,0.0823 0.514,0.1234 0.802,0.1234 0.587,0 1.06,-0.18 1.42,-0.54 0.37,-0.36 0.555,-0.972 0.555,-1.8361 v -6.4493 h 2.407 v 6.6499 c 0,0.6275 -0.087,1.2035 -0.262,1.7281 -0.175,0.5246 -0.442,0.9771 -0.802,1.3577 -0.36,0.3703 -0.818,0.6583 -1.374,0.864 -0.555,0.2058 -1.213,0.3086 -1.975,0.3086 z m 9.567,-10.9083 c 0.185,0.3394 0.396,0.7612 0.633,1.2652 0.246,0.4937 0.498,1.0337 0.756,1.62 0.267,0.576 0.529,1.1675 0.786,1.7744 0.258,0.6068 0.499,1.1777 0.726,1.7126 0.226,-0.5349 0.468,-1.1058 0.725,-1.7126 0.257,-0.6069 0.514,-1.1984 0.771,-1.7744 0.268,-0.5863 0.52,-1.1263 0.756,-1.62 0.247,-0.504 0.463,-0.9258 0.648,-1.2652 h 2.191 c 0.103,0.7097 0.196,1.5069 0.278,2.3915 0.093,0.8743 0.17,1.7898 0.231,2.7464 0.072,0.9463 0.134,1.8977 0.186,2.8543 0.061,0.9566 0.113,1.8567 0.154,2.7001 h -2.345 c -0.031,-1.0389 -0.072,-2.1703 -0.124,-3.3944 -0.051,-1.224 -0.128,-2.4583 -0.231,-3.7029 -0.185,0.432 -0.391,0.9103 -0.617,1.4349 -0.227,0.5246 -0.453,1.0491 -0.679,1.5737 -0.216,0.5246 -0.427,1.0286 -0.633,1.5121 -0.206,0.4731 -0.38,0.8794 -0.524,1.2189 h -1.682 c -0.144,-0.3395 -0.319,-0.7458 -0.525,-1.2189 -0.206,-0.4835 -0.422,-0.9875 -0.648,-1.5121 -0.216,-0.5246 -0.437,-1.0491 -0.663,-1.5737 -0.227,-0.5246 -0.432,-1.0029 -0.617,-1.4349 -0.103,1.2446 -0.18,2.4789 -0.232,3.7029 -0.051,1.2241 -0.092,2.3555 -0.123,3.3944 h -2.346 c 0.042,-0.8434 0.088,-1.7435 0.139,-2.7001 0.062,-0.9566 0.124,-1.908 0.185,-2.8543 0.072,-0.9566 0.15,-1.8721 0.232,-2.7464 0.092,-0.8846 0.19,-1.6818 0.293,-2.3915 z"
     fill="#ffffff"
     id="path6" />
  <path
     d="M 10.0822,23.1567 V 12.8345 L 0,17.2509 Z"
     fill="#ffffff"
     id="path8" />
  <path
     d="M 10.0825,12.1251 V 0.00505447 L 0.325195,16.399 Z"
     fill="#ffffff"
     id="path10" />
  <path
     d="m 10.7314,0 v 12.1251 l 9.8945,4.3343 z"
     fill="#ffffff"
     id="path12" />
  <path
     d="M 10.7314,12.8345 V 23.157 l 10.0893,-5.9031 z"
     fill="#ffffff"
     id="path14" />
  <path
     d="M 10.0828,33.5356 V 25.2332 L 0.0683594,19.3699 Z"
     fill="#ffffff"
     id="path16" />
  <path
     d="M 10.7314,33.5356 20.7459,19.3699 10.7314,25.2332 Z"
     fill="#ffffff"
     id="path18" />
  <g
     clip-path="url(#clip0)"
     id="g22">
    <path
       d="m 255.569,10.6453 c -3.433,0 -6.115,2.6797 -6.115,6.2669 0,3.5873 2.614,6.244 6.115,6.244 3.501,0 6.161,-2.7026 6.161,-6.2669 0,-3.5414 -2.614,-6.244 -6.161,-6.244 z m 0.023,9.9256 c -1.955,0 -3.387,-1.5612 -3.387,-3.6578 0,-2.1204 1.409,-3.6808 3.364,-3.6808 1.978,0 3.41,1.5842 3.41,3.6808 0,2.0966 -1.432,3.6578 -3.387,3.6578 z m 6.888,-7.1992 h 1.705 v 9.5525 h 2.728 v -12.046 h -4.433 z m -19.892,-0.1402 c 1.433,0 2.57,0.9085 3.001,2.2597 h 2.888 c -0.524,-2.8886 -2.842,-4.8459 -5.865,-4.8459 -3.433,0 -6.116,2.6797 -6.116,6.2678 0,3.5881 2.615,6.244 6.116,6.244 2.955,0 5.319,-1.9573 5.842,-4.8698 h -2.865 c -0.409,1.3513 -1.546,2.2836 -2.978,2.2836 -1.978,0 -3.365,-1.5612 -3.365,-3.6578 0.001,-2.1204 1.365,-3.6816 3.342,-3.6816 z m 71.724,2.5164 -2,-0.3025 c -0.955,-0.1394 -1.637,-0.4657 -1.637,-1.2349 0,-0.8388 0.887,-1.2578 2.091,-1.2578 1.319,0 2.161,0.5822 2.342,1.5374 h 2.637 c -0.296,-2.4229 -2.114,-3.8439 -4.91,-3.8439 -2.887,0 -4.797,1.5145 -4.797,3.6578 0,2.0499 1.251,3.2389 3.774,3.6111 l 2,0.3025 c 0.978,0.1394 1.524,0.5363 1.524,1.2816 0,0.9553 -0.955,1.3513 -2.274,1.3513 -1.614,0 -2.523,-0.6756 -2.66,-1.7005 h -2.682 c 0.25,2.3532 2.046,4.0071 5.319,4.0071 2.979,0 4.956,-1.3981 4.956,-3.7981 0,-2.1434 -1.432,-3.2618 -3.683,-3.6111 z M 265.549,5.91582 c -1,0 -1.75,0.74532 -1.75,1.77025 0,1.02493 0.749,1.77026 1.75,1.77026 1.001,0 1.751,-0.74533 1.751,-1.77026 0,-1.02493 -0.75,-1.77025 -1.751,-1.77025 z m 40.034,9.08678 c 0,-2.6091 -1.546,-4.3564 -4.819,-4.3564 -3.092,0 -4.82,1.608 -5.161,4.0777 h 2.705 c 0.137,-0.9553 0.864,-1.7473 2.41,-1.7473 1.387,0 2.069,0.6288 2.069,1.398 0,1.002 -1.25,1.2578 -2.796,1.421 -2.092,0.2328 -4.683,0.9781 -4.683,3.7742 0,2.1672 1.569,3.5643 4.069,3.5643 1.955,0 3.183,-0.8388 3.797,-2.1671 0.091,1.1881 0.955,1.9572 2.16,1.9572 h 1.591 v -2.4926 h -1.341 v -5.429 z m -2.683,3.0289 c 0,1.608 -1.363,2.7961 -3.023,2.7961 -1.024,0 -1.888,-0.4428 -1.888,-1.3742 0,-1.1881 1.387,-1.5145 2.661,-1.6539 1.227,-0.1164 1.909,-0.396 2.25,-0.9323 z m -14.481,-7.3862 c -1.523,0 -2.796,0.6527 -3.706,1.7473 V 5.79939 h -2.727 V 22.9242 h 2.682 v -1.5841 c 0.909,1.1413 2.205,1.817 3.751,1.817 3.274,0 5.752,-2.6559 5.752,-6.244 0,-3.5881 -2.524,-6.2678 -5.752,-6.2678 z m -0.409,9.9256 c -1.955,0 -3.387,-1.5612 -3.387,-3.6578 0,-2.0966 1.454,-3.6808 3.409,-3.6808 1.979,0 3.365,1.5613 3.365,3.6808 0,2.0966 -1.432,3.6578 -3.387,3.6578 z m -12.549,-9.9256 c -1.773,0 -2.933,0.7453 -3.615,1.7941 v -1.5612 h -2.706 v 12.0451 h 2.728 v -6.5465 c 0,-1.8408 1.137,-3.1453 2.819,-3.1453 1.569,0 2.546,1.1413 2.546,2.796 v 6.8967 h 2.728 v -7.1057 c 10e-4,-3.0298 -1.522,-5.1732 -4.5,-5.1732 z m 55.538,5.8718 c 0,-3.4479 -2.455,-5.8709 -5.752,-5.8709 -3.501,0 -6.07,2.7026 -6.07,6.2669 0,3.7513 2.751,6.244 6.116,6.244 2.842,0 5.069,-1.7244 5.637,-4.1703 h -2.842 c -0.409,1.0717 -1.409,1.6776 -2.751,1.6776 -1.751,0 -3.069,-1.1184 -3.364,-3.0757 h 9.025 v -1.0716 z m -8.867,-0.9324 c 0.433,-1.6776 1.66,-2.4926 3.07,-2.4926 1.546,0 2.728,0.9085 3,2.4926 z"
       fill="#ffffff"
       id="path20" />
  </g>
  <path
     d="m 213.475,12.961 c -1.134,-3.6104 -4.123,-6.03778 -7.89,-6.03778 -5.199,0 -8.785,4.17128 -8.787,9.83678 0,5.6019 3.645,9.7732 8.846,9.7732 3.767,0 6.755,-2.491 7.831,-6.1015 h 7.534 c -1.376,7.7818 -7.592,13.0113 -15.363,13.0113 -9.205,0 -16.08,-7.096 -16.08,-16.683 0,-9.58698 7.053,-16.7465875 16.08,-16.7465875 7.949,0 14.045,5.2294875 15.421,12.9475875 z"
     fill="#ffffff"
     id="path24" />
  <defs
     id="defs44">
    <filter
       id="filter0_d"
       x="140.479"
       y="3.6781499"
       width="29.3923"
       height="29.9786"
       filterUnits="userSpaceOnUse"
       color-interpolation-filters="sRGB">
      <feFlood
         flood-opacity="0"
         result="BackgroundImageFix"
         id="feFlood26" />
      <feColorMatrix
         in="SourceAlpha"
         type="matrix"
         values="0 0 0 0 0 0 0 0 0 0 0 0 0 0 0 0 0 0 127 0"
         id="feColorMatrix28" />
      <feOffset
         id="feOffset30" />
      <feGaussianBlur
         stdDeviation="4.82157"
         id="feGaussianBlur32" />
      <feColorMatrix
         type="matrix"
         values="0 0 0 0 0 0 0 0 0 0.4 0 0 0 0 1 0 0 0 1 0"
         id="feColorMatrix34" />
      <feBlend
         mode="normal"
         in2="BackgroundImageFix"
         result="effect1_dropShadow"
         id="feBlend36" />
      <feBlend
         mode="normal"
         in="SourceGraphic"
         in2="effect1_dropShadow"
         result="shape"
         id="feBlend38" />
    </filter>
    <clipPath
       id="clip0">
      <rect
         width="94.502899"
         height="17.3577"
         fill="#ffffff"
         transform="translate(236.496,5.79939)"
         id="rect41"
         x="0"
         y="0" />
    </clipPath>
  </defs>
</svg>
